<svg version="1.2" xmlns="http://www.w3.org/2000/svg" viewBox="0 0 124 27" width="124" height="27"><defs><linearGradient id="P" gradientUnits="userSpaceOnUse"/><linearGradient id="g1" x2="1" href="#P" gradientTransform="matrix(0,24.133,-24,0,16,1.434)"><stop stop-color="#fe0"/><stop offset="1" stop-color="#fb8e00"/></linearGradient></defs><style>.a{fill:#fff}.b{fill:url(#g1)}</style><path fill-rule="evenodd" class="a" d="m39.3 18.8q-0.1 0-0.3 0-0.2 0-0.3 0-0.2 0-0.4 0-0.1-0.1-0.3-0.1-0.1 0-0.3 0-0.1-0.1-0.2-0.1-0.2 0-0.3-0.1-0.1 0-0.3 0 0-0.1-0.1-0.1-0.1 0-0.2 0-0.1-0.1-0.1-0.1-0.1-0.1-0.2-0.1l0.3-1.5q0.1 0.1 0.2 0.1 0.1 0.1 0.2 0.1 0.1 0 0.1 0.1 0.1 0 0.2 0 0.1 0.1 0.2 0.1 0.1 0 0.3 0.1 0.1 0 0.2 0 0.1 0.1 0.2 0.1 0.1 0 0.3 0 0.1 0 0.2 0.1 0.1 0 0.2 0 0.2 0 0.3 0 0.2 0 0.4 0 0.1 0 0.3-0.1 0.2 0 0.4-0.1 0.1 0 0.3-0.1 0.1-0.1 0.2-0.2 0.1-0.1 0.2-0.2 0-0.2 0-0.3 0.1-0.2 0.1-0.3 0-0.1-0.1-0.2 0-0.1 0-0.2 0-0.1-0.1-0.2 0-0.1-0.1-0.2-0.1-0.1-0.1-0.1-0.1-0.1-0.2-0.2-0.1-0.1-0.2-0.1-0.1-0.1-0.2-0.2-0.5-0.3-1.3-0.6-0.1-0.1-0.3-0.2-0.1-0.1-0.3-0.2-0.2-0.1-0.3-0.2-0.2-0.1-0.3-0.2-0.1-0.1-0.3-0.2-0.1-0.1-0.2-0.2-0.2-0.2-0.3-0.3-0.1-0.2-0.2-0.3-0.1-0.2-0.1-0.3-0.1-0.2-0.2-0.4 0-0.1 0-0.3 0-0.2 0-0.4 0-0.2 0-0.3 0-0.2 0-0.3 0.1-0.2 0.1-0.4 0.1-0.1 0.2-0.3 0-0.1 0.1-0.2 0.1-0.1 0.2-0.2 0.1-0.1 0.2-0.2 0.1-0.1 0.2-0.2 0.2-0.1 0.3-0.2 0.1 0 0.3-0.1 0.1 0 0.3-0.1 0.1 0 0.3-0.1 0.1 0 0.3 0 0.2-0.1 0.3-0.1 0.2 0 0.4 0 0.1 0 0.3 0 0.2 0 0.4 0 0.2 0 0.4 0 0.2 0 0.4 0.1 0.2 0 0.4 0.1 0.1 0 0.3 0 0.1 0.1 0.2 0.1 0.1 0.1 0.2 0.1 0.1 0.1 0.2 0.1l-0.3 1.5q-0.1-0.1-0.2-0.2-0.1 0-0.2-0.1-0.1 0-0.2-0.1-0.1 0-0.3 0-0.1-0.1-0.3-0.1-0.1-0.1-0.3-0.1-0.2 0-0.3 0-0.2 0-0.4 0-0.1 0-0.2 0-0.1 0-0.2 0-0.1 0-0.3 0-0.1 0.1-0.2 0.1-0.1 0-0.2 0.1-0.1 0-0.1 0.1-0.1 0-0.2 0.1-0.1 0-0.1 0.1-0.1 0.1-0.2 0.1 0 0.1 0 0.2-0.1 0.1-0.1 0.2 0 0.1 0 0.1 0 0.1 0 0.2 0 0.1 0.1 0.2 0 0.1 0 0.2 0.1 0.1 0.1 0.2 0.1 0.1 0.1 0.2 0.1 0.1 0.2 0.1 0.1 0.1 0.2 0.2 0.1 0 0.1 0.1 0.5 0.3 1.2 0.6 0.5 0.3 1.1 0.6 0.1 0.1 0.2 0.2 0.1 0 0.2 0.1 0.2 0.1 0.3 0.2 0.1 0.1 0.2 0.2 0.1 0.1 0.2 0.2 0.1 0.1 0.1 0.2 0.1 0.1 0.2 0.2 0.1 0.1 0.1 0.2 0.1 0.2 0.1 0.3 0.1 0.1 0.1 0.3 0 0.1 0.1 0.3 0 0.1 0 0.2 0 0.2 0 0.5-0.1 0.2-0.1 0.4-0.1 0.2-0.2 0.4-0.1 0.1-0.2 0.3-0.1 0.2-0.2 0.3-0.2 0.2-0.3 0.3-0.2 0.1-0.4 0.2-0.1 0.1-0.3 0.2-0.2 0.1-0.5 0.1-0.2 0.1-0.4 0.1-0.3 0.1-0.5 0.1-0.2 0-0.5 0zm9.7 0q-0.3 0-0.6 0-0.4 0-0.7-0.1-0.3-0.1-0.5-0.2-0.3-0.1-0.6-0.2-0.2-0.2-0.4-0.3-0.2-0.2-0.4-0.4-0.2-0.2-0.3-0.4-0.1-0.2-0.2-0.5-0.1-0.3-0.2-0.5-0.1-0.3-0.1-0.6-0.1-0.3-0.1-0.6 0-0.3 0-0.7v-6h1.8v5.7q0 0.3 0 0.6 0 0.2 0 0.5 0.1 0.2 0.1 0.5 0.1 0.2 0.2 0.5 0 0.2 0.1 0.3 0.1 0.1 0.2 0.3 0.1 0.1 0.2 0.2 0.1 0.1 0.2 0.2 0.2 0.1 0.3 0.1 0.2 0.1 0.4 0.1 0.1 0.1 0.3 0.1 0.1 0 0.3 0 0.2 0 0.3 0 0.2-0.1 0.3-0.1 0.2 0 0.3-0.1 0.1 0 0.3-0.1 0.1-0.1 0.2-0.2 0.1-0.1 0.2-0.3 0.1-0.1 0.2-0.2 0.1-0.2 0.1-0.3 0.1-0.3 0.1-0.5 0.1-0.3 0.1-0.5 0-0.3 0.1-0.6 0-0.2 0-0.5v-5.7h1.8v6.1q0 0.4-0.1 0.8 0 0.5-0.1 0.9-0.2 0.4-0.4 0.8-0.2 0.4-0.4 0.8-0.3 0.3-0.7 0.5-0.3 0.2-0.7 0.4-0.4 0.1-0.8 0.2-0.4 0-0.8 0zm6.7-0.1v-10.4h0.9q0.3 0 0.7 0 0.3 0 0.8-0.1 0.4 0 0.9 0 0.3 0 0.5 0 0.3 0 0.5 0.1 0.3 0 0.5 0.1 0.3 0 0.5 0.1 0.2 0.1 0.4 0.2 0.1 0 0.3 0.2 0.1 0.1 0.3 0.2 0.1 0.1 0.2 0.3 0.1 0.1 0.2 0.3 0 0.2 0.1 0.3 0 0.2 0.1 0.4 0 0.1 0 0.3 0 0.1 0 0.3-0.1 0.1-0.1 0.2 0 0.1 0 0.3-0.1 0.1-0.1 0.2 0 0.1-0.1 0.3 0 0.1-0.1 0.2-0.1 0.1-0.1 0.2-0.1 0.1-0.2 0.2-0.1 0.1-0.2 0.2-0.1 0-0.2 0.1-0.1 0.1-0.3 0.1-0.1 0.1-0.2 0.1 0.1 0 0.3 0 0.1 0.1 0.3 0.1 0.1 0.1 0.3 0.1 0.1 0.1 0.2 0.2 0.1 0.1 0.3 0.2 0.1 0.1 0.2 0.2 0.1 0.1 0.2 0.2 0 0.1 0.1 0.3 0.1 0.1 0.2 0.3 0 0.1 0 0.3 0.1 0.1 0.1 0.3 0 0.1 0 0.3 0 0.2 0 0.4 0 0.2-0.1 0.4 0 0.2-0.1 0.4-0.1 0.2-0.2 0.4-0.1 0.2-0.2 0.4-0.1 0.2-0.3 0.3-0.2 0.2-0.4 0.3-0.2 0.1-0.4 0.2-0.3 0.1-0.6 0.2-0.3 0.1-0.6 0.1-0.3 0.1-0.7 0.1-0.3 0-0.6 0-0.6 0-1.3 0l-1.1-0.1zm1.8-6q0.1 0 0.1 0 0.1 0 0.1 0 0.1 0 0.1 0 0.1 0 0.1 0 0.2 0.1 0.5 0 0.2 0 0.4 0h0.4q0.1 0.1 0.3 0 0.2 0 0.3-0.1 0.2 0 0.3-0.1 0.2-0.1 0.3-0.2 0.1-0.1 0.2-0.3 0.1-0.1 0.1-0.3 0.1-0.2 0.1-0.4 0-0.2 0-0.4 0-0.1 0-0.3 0-0.1-0.1-0.3-0.1-0.1-0.2-0.3-0.1-0.1-0.2-0.2-0.2-0.1-0.4-0.1-0.2-0.1-0.4-0.2-0.2 0-0.4 0-0.2 0-0.4 0-0.1 0-0.3 0-0.3 0-0.5 0-0.1 0-0.1 0-0.1 0-0.1 0 0 0-0.1 0 0 0.1-0.1 0.1zm0 4.6q0.1 0.1 0.1 0.1 0.1 0 0.1 0 0.1 0 0.1 0 0.1 0 0.1 0 0.3 0.1 0.6 0.1 0.4 0 0.6 0 0.2 0 0.4 0 0.3 0 0.5-0.1 0.2 0 0.4-0.1 0.2-0.1 0.4-0.2 0.2-0.1 0.3-0.3 0.1-0.2 0.2-0.3 0.1-0.2 0.1-0.4 0-0.2 0-0.4 0-0.2 0-0.4-0.1-0.2-0.1-0.3-0.1-0.2-0.2-0.4-0.1-0.1-0.3-0.2-0.1-0.1-0.4-0.2-0.2-0.1-0.4-0.2-0.2 0-0.4 0-0.2-0.1-0.5 0-0.1 0-0.4 0-0.2 0-0.4 0h-0.4q-0.1 0-0.1 0-0.1 0-0.1 0 0 0-0.1 0 0 0-0.1 0zm10.7 1.4q-0.2 0-0.4 0-0.1 0-0.3 0-0.2 0-0.3 0-0.2 0-0.4-0.1-0.1 0-0.2 0-0.2 0-0.3-0.1-0.1 0-0.3 0-0.1-0.1-0.2-0.1-0.1 0-0.2-0.1-0.1 0-0.2 0 0 0-0.1-0.1-0.1 0-0.2-0.1l0.4-1.4q0.1 0 0.1 0.1 0.1 0 0.2 0 0.1 0.1 0.2 0.1 0.1 0 0.1 0.1 0.2 0 0.3 0 0.1 0.1 0.2 0.1 0.1 0 0.2 0.1 0.1 0 0.2 0 0.2 0 0.3 0.1 0.1 0 0.2 0 0.2 0 0.3 0 0.1 0 0.2 0 0.2 0 0.4 0 0.2 0 0.3 0 0.2-0.1 0.4-0.1 0.2-0.1 0.3-0.2 0.1-0.1 0.2-0.2 0.1-0.1 0.2-0.2 0.1-0.1 0.1-0.3 0-0.1 0-0.3 0-0.1 0-0.2 0-0.1-0.1-0.2 0-0.1 0-0.2-0.1-0.1-0.2-0.1 0-0.1-0.1-0.2-0.1-0.1-0.2-0.2-0.1-0.1-0.2-0.1-0.1-0.1-0.2-0.1-0.5-0.3-1.2-0.7-0.2-0.1-0.4-0.2-0.1 0-0.3-0.1-0.1-0.1-0.3-0.2-0.1-0.1-0.3-0.2-0.1-0.1-0.2-0.3-0.2-0.1-0.3-0.2-0.1-0.1-0.2-0.3-0.1-0.1-0.2-0.3-0.1-0.1-0.2-0.3-0.1-0.2-0.1-0.3-0.1-0.2-0.1-0.4 0-0.2 0-0.4 0-0.1 0-0.3 0-0.2 0-0.3 0.1-0.2 0.1-0.3 0.1-0.2 0.2-0.3 0.1-0.2 0.1-0.3 0.1-0.1 0.2-0.2 0.1-0.1 0.2-0.2 0.2-0.1 0.3-0.2 0.1 0 0.2-0.1 0.2-0.1 0.3-0.2 0.2 0 0.3-0.1 0.2 0 0.3 0 0.2-0.1 0.3-0.1 0.2 0 0.4 0 0.1-0.1 0.3-0.1 0.2 0 0.3 0 0.2 0 0.4 0 0.2 0 0.4 0.1 0.3 0 0.5 0 0.2 0.1 0.4 0.1 0.1 0 0.2 0.1 0.1 0 0.2 0.1 0.2 0 0.3 0.1 0.1 0 0.2 0.1l-0.4 1.4q-0.2-0.2-0.5-0.3-0.2-0.1-0.5-0.2-0.3 0-0.6-0.1-0.2 0-0.5 0-0.2 0-0.3 0-0.1 0-0.2 0-0.1 0-0.2 0.1-0.1 0-0.3 0 0 0.1-0.1 0.1-0.1 0-0.2 0.1-0.1 0-0.2 0.1 0 0-0.1 0.1-0.1 0.1-0.1 0.2-0.1 0-0.1 0.1 0 0.1 0 0.2-0.1 0.1-0.1 0.2 0 0.1 0 0.2 0.1 0.1 0.1 0.2 0 0.1 0.1 0.2 0 0 0 0.1 0.1 0.1 0.2 0.2 0 0.1 0.1 0.2 0.1 0 0.2 0.1 0.1 0.1 0.2 0.1 0.4 0.3 1.1 0.7 0.6 0.2 1.1 0.5 0.1 0.1 0.2 0.2 0.2 0.1 0.3 0.2 0.1 0 0.2 0.1 0.1 0.1 0.2 0.2 0.1 0.1 0.2 0.2 0.1 0.1 0.2 0.2 0.1 0.1 0.1 0.2 0.1 0.1 0.2 0.3 0 0.1 0.1 0.2 0 0.2 0 0.3 0.1 0.1 0.1 0.3 0 0.1 0 0.3 0 0.4-0.1 0.8-0.1 0.4-0.3 0.7-0.3 0.4-0.6 0.6-0.3 0.3-0.7 0.4-0.2 0.1-0.4 0.2-0.3 0-0.5 0.1-0.2 0-0.5 0-0.2 0-0.4 0zm5.1-5.2q0-0.3 0-0.6 0-0.3 0.1-0.6 0-0.3 0.1-0.6 0.1-0.3 0.2-0.5 0.1-0.3 0.2-0.5 0.1-0.2 0.3-0.4 0.1-0.2 0.2-0.4 0.2-0.2 0.4-0.4 0.1-0.2 0.3-0.3 0.2-0.2 0.4-0.3 0.2-0.1 0.4-0.2 0.2-0.2 0.5-0.2 0.2-0.1 0.4-0.2 0.3-0.1 0.5-0.1 0.2 0 0.5-0.1 0.2 0 0.5 0 0.2 0 0.5 0 0.3 0 0.6 0.1 0.2 0 0.5 0.1 0.3 0 0.5 0.1 0.4 0.1 0.6 0.1l-0.2 1.6q-0.2-0.1-0.3-0.1-0.2-0.1-0.3-0.1-0.1-0.1-0.3-0.1-0.1-0.1-0.3-0.1-0.1 0-0.3-0.1-0.2 0-0.3 0-0.2 0-0.3 0-0.2 0-0.3 0-0.2 0-0.5 0-0.2 0-0.4 0.1-0.2 0-0.4 0.1-0.2 0.1-0.4 0.2-0.2 0.2-0.4 0.3-0.1 0.1-0.3 0.3-0.1 0.2-0.2 0.4-0.1 0.1-0.2 0.3-0.1 0.3-0.2 0.5-0.1 0.3-0.2 0.5 0 0.3 0 0.5 0 0.3 0 0.6 0 0.2 0 0.5 0 0.2 0 0.5 0.1 0.3 0.2 0.5 0 0.3 0.1 0.5 0.1 0.2 0.3 0.4 0.1 0.2 0.2 0.4 0.2 0.2 0.3 0.3 0.2 0.2 0.4 0.3 0.2 0.1 0.4 0.2 0.2 0.1 0.4 0.2 0.2 0.1 0.5 0.1 0.2 0 0.4 0 0.2 0 0.3 0 0.1 0 0.2 0 0.2 0 0.3 0 0.1-0.1 0.2-0.1 0.2 0 0.3 0 0.1-0.1 0.2-0.1 0.1 0 0.2-0.1 0.1 0 0.2 0 0.1-0.1 0.2-0.1 0.1 0 0.1-0.1 0.1 0 0.2 0 0.1-0.1 0.1-0.1v1.5q-0.3 0.1-0.6 0.2-0.1 0.1-0.2 0.1-0.1 0-0.3 0.1-0.1 0-0.2 0-0.1 0-0.2 0.1-0.1 0-0.2 0-0.2 0-0.3 0-0.2 0-0.3 0-0.1 0-0.3 0-0.3 0.1-0.7 0-0.3 0-0.7-0.1-0.3-0.1-0.6-0.2-0.3-0.1-0.6-0.3-0.3-0.2-0.6-0.4-0.2-0.2-0.4-0.4-0.3-0.2-0.4-0.5-0.2-0.3-0.4-0.6-0.1-0.3-0.3-0.6-0.1-0.4-0.2-0.7 0-0.4-0.1-0.7 0-0.4 0-0.7zm11.8 5.1h-1.8v-10.4h0.7q0.5 0 1.2 0 0.7-0.1 1.6-0.1 0.2 0 0.4 0 0.1 0 0.3 0.1 0.2 0 0.4 0 0.1 0 0.3 0.1 0.2 0 0.3 0.1 0.2 0 0.3 0.1 0.2 0 0.3 0.1 0.1 0.1 0.3 0.2 0.1 0.1 0.2 0.2 0.1 0.1 0.2 0.2 0.1 0.1 0.2 0.3 0.1 0.1 0.2 0.2 0 0.2 0.1 0.4 0 0.1 0.1 0.3 0 0.2 0 0.4 0 0.2 0 0.4 0 0.2 0 0.4 0 0.2 0 0.4-0.1 0.2-0.1 0.4-0.1 0.2-0.2 0.4-0.1 0.1-0.2 0.3-0.1 0.1-0.2 0.2-0.1 0.2-0.2 0.3-0.2 0.1-0.3 0.2-0.2 0.1-0.3 0.2-0.2 0-0.3 0.1 0.1 0 0.2 0.1 0.1 0.1 0.1 0.1 0.1 0.1 0.2 0.2 0.1 0.2 0.2 0.3 0 0.1 0.1 0.2 0.1 0.2 0.1 0.3 0.1 0.1 0.2 0.3 0.2 0.5 0.5 1.2 0.1 0.1 0.1 0.2 0.1 0.2 0.1 0.3 0.1 0.2 0.2 0.3 0.1 0.1 0.1 0.3 0.1 0.2 0.2 0.4l0.3 0.3h-2.1q0 0 0 0-0.1-0.1-0.1-0.1 0 0 0-0.1 0 0 0 0-0.1-0.2-0.3-0.5-0.2-0.5-0.4-1.1-0.2-0.6-0.4-1.1-0.1-0.1-0.1-0.2-0.1-0.2-0.2-0.3 0-0.1-0.1-0.2-0.1-0.1-0.2-0.2 0-0.1-0.1-0.2-0.1 0-0.2-0.1-0.1 0-0.2-0.1 0 0-0.1 0-0.1 0-0.3 0-0.5 0-1.3 0zm0-5.5q0.2 0 0.5 0 0.2 0.1 0.5 0.1h0.5q0.2 0 0.4-0.1 0.2 0 0.4 0 0.2-0.1 0.4-0.2 0.2-0.1 0.3-0.2 0.1-0.2 0.2-0.4 0.1-0.1 0.2-0.3 0.1-0.2 0.1-0.4 0-0.2 0-0.4 0-0.1 0-0.2 0-0.2 0-0.3-0.1-0.1-0.1-0.2 0-0.1-0.1-0.3 0-0.1-0.1-0.1-0.1-0.1-0.1-0.2-0.1-0.1-0.2-0.2-0.1 0-0.2-0.1-0.2 0-0.3-0.1-0.2 0-0.3 0-0.2-0.1-0.3-0.1-0.2 0-0.4 0-0.3 0-0.7 0.1-0.1 0-0.2 0-0.1 0-0.1 0-0.1 0-0.2 0-0.1 0-0.2 0.1zm8.2 5.5v-10.4h1.9v10.4zm4.9 0v-10.5l0.9 0.1q0.3 0 0.7-0.1 0.3 0 0.8 0 0.4 0 0.9 0 0.2 0 0.5 0 0.3 0 0.5 0 0.3 0.1 0.5 0.1 0.3 0.1 0.5 0.2 0.2 0 0.4 0.1 0.1 0.1 0.3 0.2 0.1 0.1 0.3 0.3 0.1 0.1 0.2 0.2 0.1 0.2 0.2 0.4 0 0.1 0.1 0.3 0 0.2 0 0.3 0.1 0.2 0.1 0.4 0 0.1 0 0.2-0.1 0.2-0.1 0.3 0 0.1 0 0.2-0.1 0.2-0.1 0.3 0 0.1-0.1 0.2 0 0.1-0.1 0.2-0.1 0.1-0.1 0.2-0.1 0.2-0.2 0.2-0.1 0.1-0.2 0.2-0.1 0.1-0.2 0.2-0.1 0-0.3 0.1-0.1 0-0.2 0.1 0.1 0 0.3 0 0.1 0 0.3 0.1 0.1 0 0.3 0.1 0.1 0.1 0.2 0.2 0.1 0 0.3 0.1 0.1 0.1 0.2 0.3 0.1 0.1 0.2 0.2 0.1 0.1 0.1 0.2 0.1 0.2 0.2 0.3 0 0.2 0 0.3 0.1 0.2 0.1 0.3 0 0.2 0 0.3 0 0.2 0 0.5 0 0.2-0.1 0.4 0 0.2-0.1 0.4-0.1 0.2-0.2 0.4-0.1 0.2-0.2 0.4-0.1 0.1-0.3 0.3-0.2 0.1-0.4 0.3-0.2 0.1-0.4 0.2-0.3 0.1-0.6 0.2-0.3 0-0.6 0.1-0.3 0-0.7 0.1-0.3 0-0.6 0-0.6 0-1.3-0.1h-1.1zm1.8-6q0.1 0 0.1 0 0.1 0 0.1 0 0.1 0 0.1 0 0.1 0 0.1 0 0.2 0 0.5 0 0.2 0 0.4 0h0.4q0.1 0 0.3 0 0.2 0 0.3-0.1 0.2 0 0.3-0.1 0.1-0.1 0.3-0.2 0.1-0.2 0.2-0.3 0.1-0.2 0.1-0.4 0.1-0.1 0.1-0.3 0-0.2 0-0.4 0-0.2 0-0.3 0-0.2-0.1-0.3-0.1-0.2-0.2-0.3-0.1-0.1-0.2-0.2-0.2-0.1-0.4-0.2-0.2-0.1-0.4-0.1-0.2 0-0.4-0.1-0.2 0-0.4 0-0.1 0-0.3 0-0.3 0.1-0.5 0.1-0.1 0-0.1 0-0.1 0-0.1 0 0 0-0.1 0 0 0-0.1 0zm0 4.7q0.1 0 0.1 0 0.1 0 0.1 0.1 0.1 0 0.1 0 0.1 0 0.1 0 0.3 0 0.6 0 0.4 0.1 0.6 0.1 0.2 0 0.4-0.1 0.3 0 0.5 0 0.2-0.1 0.4-0.2 0.2 0 0.4-0.1 0.1-0.2 0.3-0.3 0.1-0.2 0.2-0.4 0-0.2 0.1-0.4 0-0.2 0-0.4 0-0.1 0-0.3-0.1-0.2-0.1-0.4-0.1-0.2-0.2-0.3-0.1-0.2-0.3-0.3-0.2-0.1-0.4-0.2-0.2-0.1-0.4-0.1-0.2-0.1-0.4-0.1-0.3 0-0.5 0-0.2 0-0.4 0-0.2 0-0.4 0h-0.4q-0.1 0-0.1 0-0.1 0-0.1 0-0.1 0-0.1 0 0 0-0.1 0.1zm7.9 1.3v-10.4h6.2v1.4h-4.3v3h3.2v1.3h-3.2v3.3h4.8v1.4z"/><path class="b" d="m10 25.6q-1.2 0-2.3-0.5-1.1-0.4-1.9-1.3-0.9-0.8-1.3-1.9-0.5-1.1-0.5-2.3v-0.8c0.8 0.7 2.2 1.2 4.4 1.2 2.4 0 6.5-0.7 7.6-1.9 1.1 1.2 5.2 1.9 7.6 1.9 2.2 0 3.6-0.5 4.4-1.2v0.8q0 1.2-0.5 2.3-0.4 1.1-1.3 1.9-0.8 0.9-1.9 1.3-1.1 0.5-2.3 0.5zm6.4-8.4h-0.8c0 0.9-3.9 2-7.2 2-2.7 0-4.4-0.8-4.4-2v-1.2q0-0.4 0.2-0.7 0.1-0.4 0.4-0.7 0.3-0.3 0.6-0.4 0.4-0.2 0.8-0.2h9.6v-2.3h0.8v2.3h9.6q0.4 0 0.8 0.2 0.3 0.1 0.6 0.4 0.3 0.3 0.4 0.7 0.2 0.3 0.2 0.7v1.2c0 1.2-1.7 2-4.4 2-3.3 0-7.2-1.1-7.2-2zm-4.4-8.7c0-2.8 4-6.8 4-6.8 0 0 4 4 4 6.8 0 2.7-1.8 3.2-4 3.2 1.1 0 2-0.8 2-2.4 0-1.7-2-3.6-2-3.6 0 0-2 1.9-2 3.6 0 1.6 0.9 2.4 2 2.4-2.2 0-4-0.5-4-3.2zm9.6 0.4v-0.8h2v0.8zm-13.2 0v-0.8h2v0.8zm12.2-3.5l2-1.2 0.4 0.6-2 1.2zm-11.6-0.5l0.4-0.7 2 1.2-0.4 0.7zm1.9-2.8l0.6-0.6 1.6 1.6-0.6 0.6zm8 1l1.6-1.6 0.6 0.6-1.6 1.6z"/></svg>